<svg width="291" height="187" xmlns="http://www.w3.org/2000/svg">
 <!-- Created with Method Draw - http://github.com/duopixel/Method-Draw/ -->
 <g>
  <title>background</title>
  <rect fill="#fff" id="canvas_background" height="189" width="293" y="-1" x="-1"/>
  <g display="none" overflow="visible" y="0" x="0" height="100%" width="100%" id="canvasGrid">
   <rect fill="url(#gridpattern)" stroke-width="0" y="0" x="0" height="100%" width="100%"/>
  </g>
 </g>
 <g>
  <title>Layer 1</title>
  <ellipse stroke="#000" ry="86.999997" rx="99.000006" id="svg_1" cy="92.999997" cx="139.500006" stroke-width="1.5" fill="#fff"/>
  <ellipse ry="9" rx="18.5" id="svg_2" cy="31" cx="123" stroke-opacity="null" stroke-width="1.5" stroke="#000" fill="#74556d"/>
  <ellipse ry="9" rx="18.5" id="svg_3" cy="39" cx="180" fill-opacity="null" stroke-opacity="null" stroke-width="1.5" stroke="#000" fill="#fff"/>
  <ellipse ry="9" rx="18.5" id="svg_5" cy="58" cx="141" fill-opacity="null" stroke-opacity="null" stroke-width="1.5" stroke="#000" fill="#fff"/>
  <ellipse ry="9" rx="18.5" id="svg_6" cy="48" cx="85" stroke-opacity="null" stroke-width="1.5" stroke="#000" fill="#74556d"/>
  <ellipse ry="9" rx="18.5" id="svg_7" cy="62" cx="206" fill-opacity="null" stroke-opacity="null" stroke-width="1.5" stroke="#000" fill="#fff"/>
  <ellipse ry="9" rx="18.5" id="svg_8" cy="82" cx="100" stroke-opacity="null" stroke-width="1.5" stroke="#000" fill="#9026c9"/>
  <ellipse ry="9" rx="18.5" id="svg_9" cy="88" cx="166" fill-opacity="null" stroke-opacity="null" stroke-width="1.5" stroke="#000" fill="#fff"/>
  <ellipse ry="9" rx="18.5" id="svg_10" cy="97" cx="60" stroke-opacity="null" stroke-width="1.5" stroke="#000" fill="#9026c9"/>
  <ellipse stroke-opacity="null" fill-opacity="null" ry="9" rx="18.5" id="svg_11" cy="94" cx="217" stroke-width="1.5" stroke="#000" fill="#fff"/>
  <text stroke="#000" transform="matrix(2.3333332538604736,0,0,1.8571428060531616,-323.33331406116486,-169.714275598526) " font-style="italic" font-weight="bold" xml:space="preserve" text-anchor="start" font-family="'League Gothic', sans-serif" font-size="24" id="svg_12" y="170.999999" x="174.785712" fill-opacity="null" stroke-opacity="null" stroke-width="0" fill="#000000">JCA</text>
  <ellipse ry="9" rx="18.5" id="svg_13" cy="48" cx="85" stroke-opacity="null" stroke-width="1.5" stroke="#000" fill="#9026c9"/>
  <ellipse ry="9" rx="18.5" id="svg_14" cy="31" cx="124" stroke-opacity="null" stroke-width="1.5" stroke="#000" fill="#9026c9"/>
  <ellipse ry="9" rx="18.5" id="svg_15" cy="58" cx="141" stroke-opacity="null" stroke-width="1.5" stroke="#000" fill="#9026c9"/>
  <ellipse ry="9" rx="18.5" id="svg_16" cy="39" cx="181" stroke-opacity="null" stroke-width="1.5" stroke="#000" fill="#9026c9"/>
  <ellipse ry="9" rx="18.5" id="svg_17" cy="88" cx="165" stroke-opacity="null" stroke-width="1.5" stroke="#000" fill="#9026c9"/>
  <ellipse ry="9" rx="18.5" id="svg_18" cy="63" cx="206" stroke-opacity="null" stroke-width="1.5" stroke="#000" fill="#9026c9"/>
  <ellipse ry="9" rx="18.5" id="svg_19" cy="82" cx="100" stroke-opacity="null" stroke-width="1.5" stroke="#000" fill="#9026c9"/>
  <path id="svg_20" d="m-16.5,53c4,1 34,6 33.5,6c0.5,0 11.5,-29 11,-29c0.5,0 9.5,-8 9,-8c0.5,0 245.5,67 245,67c0.5,0 -238.5,9 -239,9c0.5,0 179.5,0 179,0" opacity="0.5" stroke-width="1.5" stroke="#000" fill="#000000"/>
  <path id="svg_23" d="m504.5,91" opacity="0.5" stroke-width="1.5" stroke="#000" fill="#000000"/>
 </g>
</svg>